<svg width="80" height="80" viewBox="0 0 80 80" fill="none" xmlns="http://www.w3.org/2000/svg">
<g id="Icon / Filled/microphone">
<path id="Vector" fill-rule="evenodd" clip-rule="evenodd" d="M30 23.3333C30 17.8104 34.4771 13.3333 40 13.3333C45.5228 13.3333 50 17.8104 50 23.3333V36.6666C50 42.1894 45.5228 46.6666 40 46.6666C34.4771 46.6666 30 42.1894 30 36.6666V23.3333ZM20 26.6666C21.8409 26.6666 23.3333 28.159 23.3333 29.9999V36.6666C23.3333 45.8713 30.7952 53.3333 40 53.3333C49.2047 53.3333 56.6666 45.8713 56.6666 36.6666V29.9999C56.6666 28.159 58.159 26.6666 60 26.6666C61.8409 26.6666 63.3333 28.159 63.3333 29.9999V36.6666C63.3333 48.4215 54.6409 58.1462 43.3333 59.7636V66.6666C43.3333 68.5075 41.8409 69.9999 40 69.9999C38.159 69.9999 36.6666 68.5075 36.6666 66.6666V59.7636C25.359 58.1462 16.6666 48.4215 16.6666 36.6666V29.9999C16.6666 28.159 18.159 26.6666 20 26.6666Z" fill="#718BFF"/>
</g>
</svg>
