<svg width="25" height="24" viewBox="0 0 25 24" fill="none" xmlns="http://www.w3.org/2000/svg">
<g id="Icon / Outline/file-add">
<path id="Vector" fill-rule="evenodd" clip-rule="evenodd" d="M6.5 6C5.94772 6 5.5 6.44772 5.5 7V17C5.5 17.5523 5.94772 18 6.5 18H18.5C19.0523 18 19.5 17.5523 19.5 17V9C19.5 8.44772 19.0523 8 18.5 8H14.1056C13.5133 8 12.9343 7.82469 12.4415 7.49615L10.4491 6.16795C10.2849 6.05844 10.0919 6 9.89445 6H6.5ZM3.5 7C3.5 5.34315 4.84315 4 6.5 4H9.89445C10.4867 4 11.0657 4.17531 11.5585 4.50385L13.5509 5.83205C13.7151 5.94156 13.9081 6 14.1056 6H18.5C20.1569 6 21.5 7.34315 21.5 9V17C21.5 18.6569 20.1569 20 18.5 20H6.5C4.84315 20 3.5 18.6569 3.5 17V7ZM8.5 13C8.5 12.4477 8.94772 12 9.5 12H11.5V10C11.5 9.44772 11.9477 9 12.5 9C13.0523 9 13.5 9.44772 13.5 10V12H15.5C16.0523 12 16.5 12.4477 16.5 13C16.5 13.5523 16.0523 14 15.5 14H13.5V16C13.5 16.5523 13.0523 17 12.5 17C11.9477 17 11.5 16.5523 11.5 16V14H9.5C8.94772 14 8.5 13.5523 8.5 13Z" fill="#858585"/>
</g>
</svg>
