<svg width="20" height="20" viewBox="0 0 20 20" fill="none" xmlns="http://www.w3.org/2000/svg">
<g id="Icon / Iconset/link">
<path id="Vector" fill-rule="evenodd" clip-rule="evenodd" d="M10 2.49992C8.15905 2.49992 6.66667 3.9923 6.66667 5.83325V7.49992C6.66667 7.96016 6.29357 8.33325 5.83333 8.33325C5.3731 8.33325 5 7.96016 5 7.49992V5.83325C5 3.07183 7.23858 0.833252 10 0.833252C12.7614 0.833252 15 3.07183 15 5.83325V7.49992C15 7.96016 14.6269 8.33325 14.1667 8.33325C13.7064 8.33325 13.3333 7.96016 13.3333 7.49992V5.83325C13.3333 3.9923 11.8409 2.49992 10 2.49992ZM10 17.4999C11.8409 17.4999 13.3333 16.0075 13.3333 14.1666V12.4999C13.3333 12.0397 13.7064 11.6666 14.1667 11.6666C14.6269 11.6666 15 12.0397 15 12.4999V14.1666C15 16.928 12.7614 19.1666 10 19.1666C7.23858 19.1666 5 16.928 5 14.1666V12.4999C5 12.0397 5.3731 11.6666 5.83333 11.6666C6.29357 11.6666 6.66667 12.0397 6.66667 12.4999L6.66667 14.1666C6.66667 16.0075 8.15905 17.4999 10 17.4999ZM10.8333 6.66658C10.8333 6.20635 10.4602 5.83325 10 5.83325C9.53976 5.83325 9.16667 6.20635 9.16667 6.66658V13.3333C9.16667 13.7935 9.53976 14.1666 10 14.1666C10.4602 14.1666 10.8333 13.7935 10.8333 13.3333V6.66658Z" fill="#6884FF"/>
</g>
</svg>
