<svg width="36" height="43" viewBox="0 0 36 43" fill="none" xmlns="http://www.w3.org/2000/svg">
<path fill-rule="evenodd" clip-rule="evenodd" d="M10.5 7.5C10.5 3.35786 13.8579 0 18 0C22.1421 0 25.5 3.35786 25.5 7.5V17.5C25.5 21.6421 22.1421 25 18 25C13.8579 25 10.5 21.6421 10.5 17.5V7.5ZM3 10C4.38071 10 5.5 11.1193 5.5 12.5V17.5C5.5 24.4036 11.0964 30 18 30C24.9036 30 30.5 24.4036 30.5 17.5V12.5C30.5 11.1193 31.6193 10 33 10C34.3807 10 35.5 11.1193 35.5 12.5V17.5C35.5 26.3162 28.9807 33.6097 20.5 34.8228V40C20.5 41.3807 19.3807 42.5 18 42.5C16.6193 42.5 15.5 41.3807 15.5 40V34.8228C7.01926 33.6097 0.5 26.3162 0.5 17.5V12.5C0.5 11.1193 1.61929 10 3 10Z" fill="#1F1F1F"/>
</svg>
